<?xml version="1.0" encoding="UTF-8" standalone="no"?>
<!-- Created with Inkscape (http://www.inkscape.org/) -->

<svg
   xmlns:dc="http://purl.org/dc/elements/1.1/"
   xmlns:cc="http://creativecommons.org/ns#"
   xmlns:rdf="http://www.w3.org/1999/02/22-rdf-syntax-ns#"
   xmlns:svg="http://www.w3.org/2000/svg"
   xmlns="http://www.w3.org/2000/svg"
   xmlns:sodipodi="http://sodipodi.sourceforge.net/DTD/sodipodi-0.dtd"
   xmlns:inkscape="http://www.inkscape.org/namespaces/inkscape"
   width="210mm"
   height="297mm"
   viewBox="0 0 210 297"
   version="1.1"
   id="svg8"
   inkscape:version="0.92.2 (5c3e80d, 2017-08-06)"
   sodipodi:docname="oysterfriend.svg"
   inkscape:export-filename="/home/ghetzel/oysterfriend-ooo.png"
   inkscape:export-xdpi="945.44"
   inkscape:export-ydpi="945.44">
  <defs
     id="defs2" />
  <sodipodi:namedview
     id="base"
     pagecolor="#ffffff"
     bordercolor="#666666"
     borderopacity="1.0"
     inkscape:pageopacity="0.0"
     inkscape:pageshadow="2"
     inkscape:zoom="1.4"
     inkscape:cx="274.67434"
     inkscape:cy="587.69199"
     inkscape:document-units="mm"
     inkscape:current-layer="layer3"
     showgrid="false"
     inkscape:snap-global="false"
     inkscape:window-width="1916"
     inkscape:window-height="1033"
     inkscape:window-x="0"
     inkscape:window-y="45"
     inkscape:window-maximized="0" />
  <metadata
     id="metadata5">
    <rdf:RDF>
      <cc:Work
         rdf:about="">
        <dc:format>image/svg+xml</dc:format>
        <dc:type
           rdf:resource="http://purl.org/dc/dcmitype/StillImage" />
        <dc:title></dc:title>
      </cc:Work>
    </rdf:RDF>
  </metadata>
  <g
     inkscape:label="Layer 1"
     inkscape:groupmode="layer"
     id="layer1">
    <path
       style="fill:#c0ccca;stroke:#6f918a;stroke-width:0.26458332px;stroke-linecap:butt;stroke-linejoin:miter;stroke-opacity:1;fill-opacity:1"
       d="m 68.224701,168.48809 c -3.35454,-4.39397 -6.076422,-15.80263 -7.748511,-21.16666 -1.672089,-5.36403 -2.033781,-24.66761 2.642353,-35.82415 6.082153,-18.121398 9.494339,-26.997262 19.530704,-20.710793 4.07264,-6.142112 8.064726,-4.758771 12.143596,-1.523997 6.249517,-5.253312 13.382937,-2.598472 17.806477,2.130945 10.85433,-6.656473 21.05248,4.016361 23.25315,14.397635 3.41433,8.57616 1.51741,17.59548 -0.82901,26.13407 -1.82459,9.20024 -2.95054,18.75674 -5.73198,27.64508 -4.80251,21.40583 -24.25275,23.15829 -32.490767,35.96544 -3.77291,4.62692 -10.789417,6.07582 -14.496399,2.71805 -2.929316,-1.60639 -13.065967,-28.43788 -14.079613,-29.76562 z"
       id="path815"
       inkscape:connector-curvature="0"
       sodipodi:nodetypes="szcccccccccs" />
    <path
       style="fill:#cedad6;stroke:#6f918a;stroke-width:0.22463185px;stroke-linecap:butt;stroke-linejoin:miter;stroke-opacity:1;fill-opacity:1"
       d="m 72.224942,167.78669 c -2.744281,-3.87149 -4.970998,-13.9236 -6.3389,-18.6498 -1.367903,-4.72622 -1.663795,-21.73449 2.161655,-31.56443 4.975687,-15.96666 7.767128,-23.787125 15.977675,-18.248169 3.331746,-5.411764 6.597588,-4.19291 9.934431,-1.342774 5.112602,-4.628657 10.948317,-2.289495 14.567127,1.877564 8.8797,-5.864976 17.2226,3.538789 19.02293,12.685659 2.79319,7.55641 1.24136,15.50327 -0.6782,23.02657 -1.49266,8.10628 -2.41377,16.52645 -4.68921,24.3579 -3.92884,18.86054 -19.84069,20.40463 -26.580049,31.68893 -3.086542,4.07675 -8.826604,5.35337 -11.859212,2.39485 -2.396414,-1.41537 -10.689004,-25.05644 -11.518247,-26.2263 z"
       id="path815-3"
       inkscape:connector-curvature="0"
       sodipodi:nodetypes="szcccccccccs" />
    <path
       style="fill:#dbe3e2;stroke:#6f918a;stroke-width:0.17580722px;stroke-linecap:butt;stroke-linejoin:miter;stroke-opacity:1"
       d="m 77.234674,165.21819 c -2.147801,-3.03001 -3.890532,-10.89725 -4.961115,-14.59619 -1.070584,-3.69896 -1.302163,-17.01041 1.691811,-24.70378 3.894201,-12.49624 6.078911,-18.6169 12.504863,-14.28185 2.607577,-4.2355 5.163576,-3.28157 7.775142,-1.05092 4.001354,-3.6226 8.568655,-1.79186 11.400905,1.46947 6.94966,-4.5902 13.4792,2.76962 14.88822,9.92838 2.18608,5.91399 0.97154,12.13357 -0.53079,18.02165 -1.16823,6.34435 -1.88913,12.93436 -3.67,19.06361 -3.07489,14.76113 -15.52823,15.96961 -20.802762,24.80122 -2.415669,3.19065 -6.908106,4.18979 -9.281564,1.87432 -1.875544,-1.10774 -8.365706,-19.61032 -9.01471,-20.52591 z"
       id="path815-3-6"
       inkscape:connector-curvature="0"
       sodipodi:nodetypes="szcccccccccs" />
    <circle
       r="2.6458333"
       cy="119.94922"
       cx="109.1507"
       id="circle975-6"
       style="fill:#666666;fill-opacity:1;stroke:none;stroke-width:0.26458332" />
    <circle
       r="2.6458333"
       cy="119.94922"
       cx="83.995132"
       id="circle977-7"
       style="fill:#666666;fill-opacity:1;stroke:none;stroke-width:0.26458332" />
    <path
       inkscape:connector-curvature="0"
       d="m 150.8788,138.97159 -6.39854,-3.09545 6.5771,-1.26735 m -20.26073,4.36493 13.63164,-3.15853 5.57543,-5.11199"
       style="display:inline;fill:none;stroke:#666666;stroke-width:1.05833328;stroke-linecap:round;stroke-linejoin:round;stroke-miterlimit:4;stroke-dasharray:none;stroke-opacity:1"
       id="path983" />
    <path
       inkscape:connector-curvature="0"
       d="m 45.386272,123.35662 4.05395,5.83855 -6.351852,-2.12566 m 19.79316,6.14659 -13.425946,-3.94231 -7.367174,1.7154"
       style="display:inline;fill:none;stroke:#666666;stroke-width:1.05833328;stroke-linecap:round;stroke-linejoin:round;stroke-miterlimit:4;stroke-dasharray:none;stroke-opacity:1"
       id="path985" />
  </g>
  <g
     inkscape:groupmode="layer"
     id="layer2"
     inkscape:label="o-face"
     style="display:inline">
    <ellipse
       style="fill:#666666;fill-opacity:1;stroke:none;stroke-width:1.12695122;stroke-linecap:round;stroke-linejoin:round;stroke-miterlimit:4;stroke-dasharray:none;stroke-opacity:1"
       id="path992-5"
       cx="96.464172"
       cy="139.81589"
       rx="6.7468748"
       ry="6.1515627" />
  </g>
  <g
     inkscape:groupmode="layer"
     id="layer3"
     inkscape:label="happy"
     style="display:none">
    <path
       style="fill:#666666;stroke:none;stroke-width:0.26458332px;stroke-linecap:butt;stroke-linejoin:miter;stroke-opacity:1"
       d="m 83.399215,135.64959 c 8.3299,-0.0446 16.659805,-0.0891 24.989695,-0.13364 -1.56616,3.83624 -4.42992,7.40984 -8.435945,8.82632 -4.54559,1.5609 -9.84237,0.0183 -13.09383,-3.45378 -1.47101,-1.50606 -2.65532,-3.293 -3.45992,-5.2389 z"
       id="path911-9"
       inkscape:connector-curvature="0" />
  </g>
</svg>
