<?xml version="1.0" encoding="UTF-8" standalone="no"?>
<!-- Created with Inkscape (http://www.inkscape.org/) -->

<svg
   xmlns:dc="http://purl.org/dc/elements/1.1/"
   xmlns:cc="http://creativecommons.org/ns#"
   xmlns:rdf="http://www.w3.org/1999/02/22-rdf-syntax-ns#"
   xmlns:svg="http://www.w3.org/2000/svg"
   xmlns="http://www.w3.org/2000/svg"
   xmlns:sodipodi="http://sodipodi.sourceforge.net/DTD/sodipodi-0.dtd"
   xmlns:inkscape="http://www.inkscape.org/namespaces/inkscape"
   width="320"
   height="240"
   viewBox="0 0 84.666664 63.5"
   version="1.1"
   id="svg71"
   inkscape:export-filename="/home/ghetzel/src/github.com/ghetzel/bop-platform-2/frontend/assets/img/placeholders/oyster.png"
   inkscape:export-xdpi="96"
   inkscape:export-ydpi="96"
   inkscape:version="0.92.2 (5c3e80d, 2017-08-06)"
   sodipodi:docname="oyster.svg">
  <defs
     id="defs65">
    <clipPath
       clipPathUnits="userSpaceOnUse"
       id="clipPath45">
      <path
         d="M 0,360 H 360 V 0 H 0 Z"
         id="path43"
         inkscape:connector-curvature="0" />
    </clipPath>
  </defs>
  <sodipodi:namedview
     id="base"
     pagecolor="#ffffff"
     bordercolor="#666666"
     borderopacity="1.0"
     inkscape:pageopacity="0.0"
     inkscape:pageshadow="2"
     inkscape:zoom="1.979899"
     inkscape:cx="125.41078"
     inkscape:cy="128.90574"
     inkscape:document-units="mm"
     inkscape:current-layer="layer1"
     showgrid="true"
     units="px"
     inkscape:window-width="1916"
     inkscape:window-height="1033"
     inkscape:window-x="1920"
     inkscape:window-y="45"
     inkscape:window-maximized="0">
    <inkscape:grid
       type="xygrid"
       id="grid3780" />
  </sodipodi:namedview>
  <metadata
     id="metadata68">
    <rdf:RDF>
      <cc:Work
         rdf:about="">
        <dc:format>image/svg+xml</dc:format>
        <dc:type
           rdf:resource="http://purl.org/dc/dcmitype/StillImage" />
        <dc:title></dc:title>
      </cc:Work>
    </rdf:RDF>
  </metadata>
  <g
     inkscape:label="Layer 1"
     inkscape:groupmode="layer"
     id="layer1"
     transform="translate(0,-233.5)">
    <g
       transform="matrix(0.11759283,0,0,-0.11759283,21.1666,286.41667)"
       id="g39">
      <g
         id="g41"
         clip-path="url(#clipPath45)">
        <g
           id="g47"
           transform="translate(282.0332,229.4966)">
          <path
             d="m 0,0 v -86.686 c -0.551,0.37 -1.102,0.756 -1.669,1.154 -4.707,3.299 -10.565,7.469 -23.438,7.469 h -0.074 c -11.981,0 -17.666,-3.908 -22.673,-7.3 -3.133,-2.122 -5.794,-3.952 -10.162,-4.782 0.184,1.214 0.327,2.395 0.462,3.521 0.279,2.318 0.567,4.711 1.114,6.047 0.133,0.201 0.431,0.584 0.655,0.873 1.013,1.309 2.399,3.101 3.308,5.606 1.177,3.232 1.561,6.318 1.87,8.797 0.271,2.181 0.485,3.902 1.077,4.945 0.508,0.897 1.013,1.715 1.55,2.58 2.85,4.611 6.082,9.837 5.173,20.27 -0.148,1.679 -0.532,3.09 -0.851,4.234 0.281,0.578 0.575,1.242 0.821,1.97 0.39,1.156 0.77,2.394 1.137,3.593 0.496,1.616 1.232,4.014 1.684,5.016 0.05,0.07 0.116,0.16 0.169,0.233 0.683,0.935 1.827,2.5 2.55,4.822 1.385,4.452 1.465,9.107 0.237,13.832 -0.931,3.585 -2.432,6.638 -3.755,9.331 -0.812,1.653 -1.58,3.214 -1.965,4.43 -0.096,0.302 -0.232,0.731 -0.292,0.961 -0.22,2.199 -0.311,4.447 -0.406,6.823 -0.179,4.489 -0.365,9.129 -1.5,13.692 -1.513,6.08 -4.416,10.847 -8.874,14.572 -2.201,1.839 -4.531,3.033 -6.586,4.087 -1.096,0.562 -2.134,1.094 -2.828,1.569 -0.205,0.205 -0.611,0.712 -0.915,1.088 -0.92,1.145 -2.18,2.712 -3.97,4.056 -2.35,1.764 -4.734,2.676 -6.649,3.409 -0.803,0.308 -1.633,0.625 -2.029,0.857 -0.349,0.205 -1.156,0.979 -1.746,1.545 -0.912,0.874 -1.946,1.865 -3.224,2.829 -5.338,4.025 -11.476,6.068 -18.242,6.068 -3.275,0 -6.713,-0.495 -10.217,-1.469 l -1.698,-0.473 -1.432,-1.027 c -1.088,-0.78 -2.283,-1.505 -3.548,-2.273 -1.713,-1.04 -3.656,-2.219 -5.721,-3.765 l -1.94,-1.45 -1.054,-2.179 c -1.742,-3.599 -3.189,-5.559 -4.997,-6.765 -1.299,-0.866 -2.538,-1.583 -3.735,-2.275 -2.826,-1.633 -6.028,-3.485 -9.063,-6.853 -4.03,-4.477 -5.472,-10.348 -6.28,-14.964 -0.415,-2.379 -0.303,-4.389 -0.214,-6.003 0.043,-0.767 0.079,-1.429 0.067,-2.142 -0.015,-0.819 -0.831,-2.402 -1.621,-3.933 -0.79,-1.528 -1.684,-3.261 -2.382,-5.264 -3.173,-9.115 -4.65,-16.304 -4.65,-22.629 0,-2.217 0.323,-4.216 0.607,-5.98 0.14,-0.863 0.345,-2.132 0.352,-2.709 -0.153,-0.379 -0.583,-1.148 -0.907,-1.725 -1.248,-2.228 -2.957,-5.279 -3.412,-9.462 -0.176,-1.627 -0.011,-3.006 0.109,-4.014 0.016,-0.14 0.037,-0.315 0.05,-0.448 -0.023,-0.156 -0.06,-0.376 -0.09,-0.549 -0.191,-1.11 -0.451,-2.628 -0.335,-4.441 0.282,-4.388 1.882,-7.429 2.942,-9.442 0.192,-0.363 0.457,-0.866 0.599,-1.184 -0.001,-0.156 -0.005,-0.331 -0.007,-0.478 -0.019,-1.076 -0.044,-2.551 0.215,-4.171 0.578,-3.664 2.321,-6.552 3.593,-8.659 0.379,-0.629 0.951,-1.576 1.088,-1.938 0.497,-1.57 0.545,-4.109 0.595,-6.797 0.053,-2.763 0.111,-5.896 0.642,-9.243 0.268,-1.696 0.729,-3.29 1.278,-4.796 -1.263,0.718 -2.435,1.543 -3.688,2.424 -4.708,3.315 -10.567,7.502 -23.447,7.502 h -0.072 c -11.977,0 -17.67,-3.892 -22.675,-7.268 -1.016,-0.685 -1.983,-1.339 -2.974,-1.939 V 0 79.974 c 19.143,1.324 63.437,4.069 102.031,4.069 38.577,0 82.882,-2.745 102.032,-4.069 z m -3.745,-105.079 c -1.509,0.891 -2.853,1.836 -4.147,2.747 -4.167,2.935 -7.764,5.47 -17.215,5.47 h -0.074 c -8.661,0 -12.161,-2.371 -16.591,-5.373 -4.883,-3.307 -10.417,-7.057 -21.822,-7.057 -1.109,0 -2.154,0.04 -3.151,0.108 1.204,1.785 2.379,3.455 3.55,4.906 l 2.125,2.634 0.006,0.269 c 9.719,0.518 14.785,4 19.291,7.051 4.431,3.003 7.931,5.437 16.592,5.437 h 0.074 c 9.458,0 13.045,-2.586 17.214,-5.508 1.945,-1.363 3.998,-2.813 6.558,-4.037 -0.61,-2.178 -1.42,-4.416 -2.41,-6.647 m -61.749,74.302 c -1.782,0.753 -3.467,1.464 -4.549,2.28 -1.392,1.051 -2.726,2.41 -4.138,3.849 -3.206,3.268 -6.84,6.972 -11.866,6.989 h -0.034 c -5.008,0 -8.658,-3.67 -11.879,-6.909 -1.422,-1.429 -2.765,-2.779 -4.164,-3.821 -1.087,-0.809 -2.775,-1.508 -4.564,-2.249 -3.7,-1.533 -8.304,-3.442 -10.981,-7.84 -3.325,-5.462 -3.773,-9.124 -4.17,-12.355 -0.352,-2.88 -0.658,-5.369 -3.184,-9.519 -2.527,-4.151 -4.597,-5.565 -6.994,-7.201 -2.687,-1.836 -5.734,-3.916 -9.059,-9.379 -0.717,-1.179 -1.3,-2.273 -1.778,-3.297 -0.653,5.744 0.124,11.345 -1.405,16.126 -0.597,1.868 -1.854,3.642 -2.874,5.44 0.188,0.873 0.329,1.703 0.466,2.504 0.525,3.076 0.979,5.732 3.844,10.185 2.865,4.454 5.094,5.968 7.676,7.721 2.785,1.89 5.94,4.033 9.544,9.635 3.605,5.602 4.248,9.363 4.814,12.68 0.525,3.076 0.978,5.732 3.844,10.186 1.592,2.475 4.697,3.678 7.983,4.952 2.134,0.827 4.34,1.682 6.17,2.96 1.878,1.311 3.537,2.89 5.143,4.418 2.6,2.477 5.062,4.808 7.296,4.793 2.24,-0.025 4.646,-2.417 7.194,-4.949 1.571,-1.562 3.195,-3.177 5.045,-4.528 1.802,-1.316 3.989,-2.219 6.104,-3.092 3.259,-1.344 6.336,-2.615 7.875,-5.124 3.467,-5.653 4.185,-9.01 4.944,-12.564 0.81,-3.792 1.649,-7.707 5.31,-13.879 0.095,-1.923 1.017,-3.869 1.17,-5.604 0.126,-1.446 0.149,-2.718 0.089,-3.866 -0.546,1.103 -1.185,2.28 -1.943,3.546 -2.648,4.415 -7.239,6.354 -10.929,7.912 m 4.637,-36.082 c -0.23,0.1 -0.456,0.198 -0.679,0.294 -1.735,0.751 -3.371,1.46 -4.38,2.248 -1.345,1.052 -2.633,2.402 -3.996,3.832 -3.172,3.325 -6.767,7.094 -11.837,7.094 h -0.048 c -5.098,-0.025 -8.669,-3.842 -11.819,-7.209 -1.35,-1.442 -2.624,-2.805 -3.958,-3.869 -1.001,-0.797 -2.631,-1.522 -4.358,-2.289 -3.638,-1.617 -8.167,-3.628 -10.733,-8.114 -3.052,-5.332 -3.305,-8.896 -3.527,-12.041 -0.198,-2.787 -0.354,-4.99 -2.549,-8.826 -2.196,-3.837 -4.015,-5.086 -6.319,-6.669 -1.769,-1.215 -3.699,-2.542 -5.713,-4.946 -0.996,1.174 -2.073,2.781 -3.011,4.31 -1.062,1.727 -2.842,3.449 -3.417,5.01 -0.414,1.125 -0.245,2.69 -0.684,4.1 -0.166,0.537 -0.365,1.08 -0.583,1.627 0.117,0.746 0.205,1.46 0.29,2.154 0.354,2.88 0.658,5.367 3.185,9.518 2.526,4.151 4.596,5.564 6.992,7.201 2.688,1.836 5.735,3.917 9.061,9.379 3.324,5.463 3.773,9.125 4.169,12.355 0.353,2.882 0.658,5.369 3.185,9.52 1.468,2.412 4.458,3.651 7.624,4.964 2.11,0.874 4.293,1.778 6.089,3.114 1.824,1.358 3.419,2.962 4.962,4.513 2.46,2.473 4.783,4.81 6.832,4.81 h 0.009 c 2.049,-0.007 4.361,-2.362 6.807,-4.856 1.533,-1.561 3.117,-3.176 4.932,-4.546 1.787,-1.348 3.963,-2.267 6.067,-3.155 3.158,-1.334 6.14,-2.593 7.591,-5.015 2.714,-4.526 3.556,-7.414 4.155,-10.327 -0.529,-0.858 -1.087,-1.764 -1.659,-2.772 -2.061,-3.631 -2.04,-7.538 -2.68,-11.409 m -11.89,-33.556 c -3.306,-4.539 -6.385,-9.822 -10.481,-15.156 -4.814,-6.263 -6.229,-14.1 -10.021,-19.81 -2.458,-3.702 -6.193,-5.79 -10.702,-7.288 -0.737,0.479 -1.515,0.915 -2.507,1.139 -0.48,0.866 -1.104,1.586 -1.807,2.23 0.977,1.161 1.962,2.586 2.924,4.387 2.784,5.213 2.839,8.832 2.882,11.74 0.039,2.566 0.069,4.593 1.943,8.102 1.207,2.26 3.948,3.569 6.849,4.955 2.059,0.985 4.188,2.002 5.902,3.477 1.697,1.461 3.144,3.117 4.544,4.721 2.057,2.353 4.183,4.787 5.798,4.808 h 0.023 c 1.295,0 2.956,-1.521 4.653,-3.305 m 7.281,24.016 c -2.168,-4.863 -1.654,-11.32 -3.352,-16.685 -2.38,2.188 -5.119,3.95 -8.574,3.95 -0.046,0 -0.093,-0.001 -0.14,-0.001 -5.171,-0.072 -8.637,-4.037 -11.695,-7.536 -1.216,-1.394 -2.474,-2.833 -3.742,-3.924 -0.907,-0.781 -2.475,-1.531 -4.136,-2.325 -3.567,-1.704 -8.005,-3.825 -10.446,-8.394 -2.784,-5.214 -2.838,-8.832 -2.882,-11.739 -0.039,-2.567 -0.069,-4.594 -1.942,-8.104 -0.746,-1.395 -1.459,-2.414 -2.181,-3.232 -1.075,1.863 -0.779,4.184 -1.466,6.066 -1.059,2.903 -4.26,4.262 -6.375,5.922 -1.256,3.26 -1.041,6.497 -2.506,9.336 -0.104,0.201 -0.216,0.387 -0.332,0.566 0,-0.001 0.001,-0.001 0.002,-0.002 1.442,1.803 2.825,2.758 4.447,3.872 2.598,1.785 5.544,3.808 8.596,9.141 3.051,5.333 3.304,8.898 3.527,12.042 0.197,2.787 0.353,4.988 2.549,8.825 1.339,2.341 4.209,3.616 7.247,4.965 2.085,0.927 4.242,1.885 5.999,3.286 1.764,1.408 3.289,3.037 4.764,4.614 2.313,2.472 4.499,4.808 6.342,4.816 h 0.011 c 1.841,0 4.045,-2.31 6.377,-4.755 1.49,-1.561 3.031,-3.177 4.809,-4.567 1.77,-1.385 3.935,-2.322 6.03,-3.229 0.247,-0.107 0.493,-0.215 0.738,-0.321 -0.625,-0.81 -1.247,-1.644 -1.669,-2.587 m -74.467,102.704 c 0.605,3.455 1.543,7.435 3.871,10.021 2.996,3.324 6.295,4.42 10.932,7.514 3.763,2.511 6.196,6.094 8.428,10.703 3.136,2.346 6.097,3.761 9.108,5.92 2.607,0.725 5.128,1.106 7.553,1.106 4.449,0 8.566,-1.282 12.259,-4.066 1.976,-1.489 3.635,-3.669 5.922,-5.008 2.504,-1.469 5.525,-1.98 7.742,-3.644 1.706,-1.28 2.912,-3.753 5.011,-5.238 2.804,-1.989 6.411,-3.176 8.88,-5.238 8.047,-6.725 6.131,-17.539 7.287,-28.695 0.046,-0.444 0.151,-0.916 0.28,-1.391 -2.097,3.989 -2.763,6.799 -3.458,9.738 -0.955,4.035 -1.943,8.209 -6.198,15.001 -2.703,4.313 -7.168,6.117 -11.109,7.708 -1.874,0.757 -3.644,1.472 -4.863,2.336 -1.484,1.054 -2.904,2.434 -4.407,3.896 -3.242,3.15 -6.914,6.72 -11.805,6.806 -4.9,0.081 -8.688,-3.353 -12.036,-6.388 -1.554,-1.407 -3.022,-2.737 -4.542,-3.738 -1.247,-0.821 -3.042,-1.473 -4.942,-2.164 -3.993,-1.451 -8.52,-3.097 -11.372,-7.314 -3.889,-5.748 -4.722,-9.608 -5.459,-13.014 -0.704,-3.263 -1.312,-6.081 -4.522,-10.825 -3.21,-4.745 -5.6,-6.358 -8.366,-8.227 -0.187,-0.125 -0.374,-0.252 -0.564,-0.38 0.584,2.032 1.216,3.958 1.816,5.68 1.357,3.898 4.473,7.513 4.554,12.297 0.047,2.734 -0.36,4.539 0,6.604 m -12.069,-59.209 c 0.469,4.31 3.918,7.036 4.326,11.159 0.304,3.065 -0.909,6.603 -0.909,9.792 0,1.177 0.074,2.381 0.202,3.596 2.18,2.587 4.057,3.856 6.15,5.268 2.887,1.95 6.161,4.16 10.049,9.908 3.89,5.749 4.723,9.609 5.458,13.014 0.705,3.263 1.314,6.081 4.524,10.826 1.714,2.533 4.925,3.7 8.323,4.936 2.155,0.784 4.384,1.594 6.245,2.819 1.925,1.267 3.644,2.823 5.305,4.329 2.729,2.473 5.317,4.807 7.719,4.766 2.412,-0.042 4.906,-2.467 7.547,-5.034 1.607,-1.563 3.27,-3.179 5.149,-4.513 1.817,-1.289 4.017,-2.177 6.143,-3.036 3.354,-1.355 6.521,-2.634 8.145,-5.225 3.706,-5.915 4.534,-9.413 5.41,-13.117 0.955,-4.036 1.943,-8.209 6.198,-15.001 3.848,-6.143 6.936,-8.946 9.869,-11.364 0,0 1.079,0.25 -0.642,-4.904 -0.434,-1.298 -1.378,-2.068 -2.049,-3.418 -0.7,-1.403 -1.385,-3.517 -2.052,-5.676 -0.907,2.334 -1.324,4.281 -1.754,6.291 -0.843,3.95 -1.716,8.034 -5.783,14.666 -2.678,4.366 -7.307,6.277 -11.027,7.811 -1.83,0.756 -3.558,1.469 -4.71,2.31 -1.438,1.051 -2.816,2.42 -4.275,3.87 -3.226,3.206 -6.882,6.841 -11.839,6.894 -0.037,0.001 -0.074,0.001 -0.111,0.001 -4.902,0 -8.604,-3.525 -11.875,-6.638 -1.489,-1.418 -2.895,-2.758 -4.357,-3.778 -1.169,-0.816 -2.912,-1.492 -4.758,-2.207 -3.752,-1.454 -8.421,-3.264 -11.193,-7.572 -3.604,-5.602 -4.246,-9.362 -4.813,-12.68 -0.525,-3.076 -0.979,-5.732 -3.844,-10.185 -2.866,-4.454 -5.095,-5.967 -7.676,-7.72 -2.784,-1.891 -5.941,-4.034 -9.545,-9.636 -0.826,-1.284 -1.495,-2.47 -2.045,-3.578 -0.807,1.535 -1.593,3.091 -1.733,5.284 -0.077,1.2 0.414,2.656 0.456,4.098 0.038,1.297 -0.333,2.677 -0.228,3.644 m -9.121,-69.423 c -4.167,2.933 -7.766,5.465 -17.219,5.465 h -0.072 c -8.66,0 -12.159,-2.373 -16.591,-5.377 -1.585,-1.075 -3.24,-2.195 -5.141,-3.219 -1.023,2.256 -1.867,4.526 -2.502,6.736 3.016,1.3 5.394,2.909 7.632,4.419 4.434,2.99 7.935,5.416 16.602,5.416 h 0.072 c 9.453,0 13.052,-2.596 17.219,-5.529 3.59,-2.526 7.556,-5.35 14.405,-6.499 0.058,-0.181 0.118,-0.365 0.187,-0.552 0.884,-2.401 2.289,-4.197 3.418,-5.639 0.307,-0.393 0.728,-0.932 0.86,-1.145 0.213,-0.347 0.423,-0.683 0.63,-1.009 -10.141,0.351 -15.101,3.838 -19.5,6.933 m 59.091,196.83 c -51.624,0 -112.491,-4.802 -112.491,-4.802 V 0 -89.701 c 0,-0.262 0.009,-0.529 0.016,-0.794 0.08,-3.422 0.671,-7.045 1.69,-10.697 0.708,-2.543 1.62,-5.1 2.707,-7.609 0.656,-1.514 1.374,-3.012 2.149,-4.48 4.05,-7.665 9.636,-14.518 15.779,-18.71 l 45.076,-30.753 45.074,-30.753 56.247,38.374 33.901,23.132 c 6.147,4.192 11.732,11.045 15.78,18.71 0.791,1.497 1.521,3.027 2.188,4.573 1.072,2.488 1.973,5.02 2.674,7.54 1.02,3.668 1.61,7.307 1.684,10.744 0.005,0.24 0.015,0.484 0.015,0.723 V 0 89.701 c 0,0 -60.865,4.802 -112.489,4.802"
             style="fill:#3b6ba7;fill-opacity:1;fill-rule:nonzero;stroke:none"
             id="path49"
             inkscape:connector-curvature="0" />
        </g>
      </g>
    </g>
  </g>
</svg>
