<?xml version="1.0" encoding="UTF-8" standalone="no"?>
<svg
   xmlns:dc="http://purl.org/dc/elements/1.1/"
   xmlns:cc="http://creativecommons.org/ns#"
   xmlns:rdf="http://www.w3.org/1999/02/22-rdf-syntax-ns#"
   xmlns:svg="http://www.w3.org/2000/svg"
   xmlns="http://www.w3.org/2000/svg"
   xmlns:sodipodi="http://sodipodi.sourceforge.net/DTD/sodipodi-0.dtd"
   xmlns:inkscape="http://www.inkscape.org/namespaces/inkscape"
   version="1.0"
   width="116"
   height="116"
   id="svg7"
   sodipodi:docname="lighthouse.svg"
   inkscape:version="0.92.2 (5c3e80d, 2017-08-06)">
  <metadata
     id="metadata13">
    <rdf:RDF>
      <cc:Work
         rdf:about="">
        <dc:format>image/svg+xml</dc:format>
        <dc:type
           rdf:resource="http://purl.org/dc/dcmitype/StillImage" />
        <dc:title></dc:title>
      </cc:Work>
    </rdf:RDF>
  </metadata>
  <defs
     id="defs11">
    <clipPath
       clipPathUnits="userSpaceOnUse"
       id="clipPath8462">
      <g
         id="use8464"
         inkscape:label="Clip">
        <g
           id="use8493"
           style="fill:#ff00ff;fill-opacity:1"
           transform="translate(2.3526865,2.8538683)">
          <path
             inkscape:connector-curvature="0"
             id="path8642"
             style="fill:#000000;fill-rule:evenodd"
             d="m 112.56,251.15 15.073,-44.316 -37.03,-26.581 h 45.175 l 14.431,-43.713 13.812,43.713 h 45.794 l -37.007,27.206 13.812,43.69 -36.41,-27.206 -37.649,27.206 z m 49.878,-51.086 c 0,6.9047 -5.5529,12.508 -12.395,12.508 -6.842,0 -12.395,-5.6038 -12.395,-12.508 0,-6.9047 5.5529,-12.509 12.395,-12.509 6.842,0 12.395,5.6038 12.395,12.509 z" />
        </g>
      </g>
    </clipPath>
  </defs>
  <sodipodi:namedview
     pagecolor="#ffffff"
     bordercolor="#666666"
     borderopacity="1"
     objecttolerance="10"
     gridtolerance="10"
     guidetolerance="10"
     inkscape:pageopacity="0"
     inkscape:pageshadow="2"
     inkscape:window-width="1916"
     inkscape:window-height="1033"
     id="namedview9"
     showgrid="true"
     fit-margin-top="0"
     fit-margin-left="0"
     fit-margin-right="0"
     fit-margin-bottom="0"
     inkscape:zoom="1.668772"
     inkscape:cx="-51.664818"
     inkscape:cy="87.408481"
     inkscape:window-x="0"
     inkscape:window-y="45"
     inkscape:window-maximized="0"
     inkscape:current-layer="svg7"
     inkscape:snap-global="false">
    <inkscape:grid
       type="xygrid"
       id="grid8472"
       originx="-2.3526865"
       originy="-2.8538539" />
  </sodipodi:namedview>
  <g
     inkscape:groupmode="layer"
     id="layer1"
     inkscape:label="Layer 1"
     transform="translate(-2.3526865,4.2438719)" />
  <g
     id="g824"
     transform="translate(0.74669,-3.5488701)">
    <path
       id="path8516"
       d="M 57.253315,7.0977402 70.772345,48.69008 114.50662,48.69468 79.127574,74.404813 92.637805,116 57.253315,90.297394 21.868817,116 35.379054,74.404813 0,48.694705 l 43.734276,-0.0046 z"
       inkscape:transform-center-y="-5.7485596"
       style="fill:#000000;fill-opacity:1"
       inkscape:connector-curvature="0" />
    <path
       id="path8507"
       d="M 70.688524,67.223542 A 13.435214,13.435214 0 0 1 57.25331,80.658759 13.435214,13.435214 0 0 1 43.818096,67.223542 13.435214,13.435214 0 0 1 57.25331,53.788327 13.435214,13.435214 0 0 1 70.688524,67.223542 Z"
       style="fill:#ffcc00;fill-opacity:1;stroke-width:1.02280986"
       inkscape:connector-curvature="0" />
  </g>
</svg>
